<svg id="katman_1" data-name="katman 1" xmlns="http://www.w3.org/2000/svg" viewBox="0 0 261 261"><defs><style>.cls-1{fill:#fdfdfd;}.cls-2{fill:#575759;}.cls-3{fill:#123f6a;}.cls-4{fill:#c6c8ca;}.cls-5{fill:#133d68;}.cls-6{fill:#2c435c;}.cls-7{fill:#344759;}.cls-8{fill:#c9cccf;}.cls-9{fill:#ccccce;}.cls-10{fill:#455463;}.cls-11{fill:#61686c;}.cls-12{fill:#adadad;}.cls-13{fill:#8e8e8e;}.cls-14{fill:#868888;}.cls-15{fill:#a9a9a9;}.cls-16{fill:#a7a7a7;}.cls-17{fill:#f9fafa;}.cls-18{fill:#fafafa;}.cls-19{fill:#bec8d1;}.cls-20{fill:#fbfaf8;}</style></defs><path class="cls-1" d="M316,529.23q-63.46,0-126.92.08c-3,0-3.59-.6-3.58-3.58q.15-126.92,0-253.84c0-3,.59-3.58,3.57-3.58q126.93.15,253.85,0c3,0,3.58.6,3.58,3.58q-.17,126.93,0,253.84c0,3-.6,3.59-3.58,3.58Q379.42,529.13,316,529.23Z" transform="translate(-185.47 -268.31)"/><path class="cls-2" d="M347.26,379.24c3.6-14,6.16-28.16,4.06-42.68-.75-5.24-2-10.91-7.67-13s-10.22,1.28-14.49,4.55a44.31,44.31,0,0,0-3.6,3.4,1,1,0,0,1-1.36-.14c5.22-6.25,10.12-13.88,17.9-16,9.33-2.58,11.64-9.58,14.94-16.55,1.9-4,3.74-8.12,5.61-12.18,1.84-.12,1.19.94.88,1.84-1.9,7.05-3.73,14.13-5.73,21.15a6.42,6.42,0,0,0,1.43,6.68c6.54,8,6.74,17.83,6.6,27.5-.28,20.17-5.32,39.45-11.42,58.5a9,9,0,0,1-1.86,5.06l-7,16.57c.59,5.49-2.82,9.45-5.3,13.76-2,.68-2.3,2.56-3.19,4.11-7.5,13.1-15.3,26-27,35.93-4.09,3.47-8.49,6.46-14,6.89-2.32.18-3,1.58-3.8,3.27-2.92,6.12-5.9,12.21-8.86,18.32-1.9.09-1.41-1-1-2.06,1.56-5.92,3.14-11.85,4.67-17.78.4-1.55,1.13-3-.21-4.68-7.76-9.59-7.06-21.05-7.2-33.38,2.33,3.95,1.57,7.57,2.49,10.82,3,10.78,9.81,13.46,19,6.91,11-7.84,17.7-19.18,24.24-30.59.26-.44-.13-1.26-.21-1.91,2.66-3.84,3.44-8.67,6.43-12.34a17.41,17.41,0,0,0,1.94-4.47c1.84-5.23,4-10.32,6-15.48a24.32,24.32,0,0,0,1.75-5.46c1.48-4.7,2.81-9.43,4.27-14.13A10.47,10.47,0,0,1,347.26,379.24Z" transform="translate(-185.47 -268.31)"/><path class="cls-3" d="M332.38,421.41c-2.77,3.82-2.27,9.61-7.25,12.11-6.13-.95-11.73-3.69-17.7-5.21a8.84,8.84,0,0,1-5-1.92c-19.95-8-39.25-17.2-56.13-30.8-6.1-4.92-11.81-10.23-15.91-17-1.38-2.29-2.84-4.6-3-7.3-.21-3.43-1.39-6-4.86-7.06-1.27-3.1,1.14-3.46,3.09-4.17,1.78.35,3.34.59,4.91-1,4.3-4.44,9.95-6,15.87-6.73,2.14-.47,4.51-1.49,5,2-11,4.26-9.84,12.93-5.4,19.34,6.56,9.47,15.77,15.94,25.35,21.88,5.17,3.21,10.68,5.89,16,8.82,1.44.9,3.15.63,4.69,1.1,4.68,1.78,9.26,3.8,13.8,5.89,2.77,1.47,5.83,2.15,8.77,3.13,5,2,10.46,2.9,15.5,4.93A3.91,3.91,0,0,1,332.38,421.41Z" transform="translate(-185.47 -268.31)"/><path class="cls-4" d="M291.52,406.23a6.61,6.61,0,0,1-4.09-1.87c8.21-2.3,15-7.32,23.54-11.6l-38.92-19.54.31-.79c6,1.63,12,3.23,18,4.91,6.53,1.83,13,3.75,19.56,5.61,3.19.91,4-.11,2.84-3.23-2-5.42-3.44-11.05-5.61-16.52,4.7,5.25,6.52,12.37,11.56,18.21L337.72,344l.69.25c-1.88,6.79-3.69,13.58-5.65,20.34-1.6,5.55-3.4,11.05-5,16.58-.32,1.09-.69,2.42.24,3.33s2.25,0,3.23-.38c5.3-1.84,10.31-4.58,16.07-4.92a2,2,0,0,1-.64,2.25c-4.59,2.79-9.69,4.7-14.33,8.2,3,2.91,7.41,3.5,10.07,6.58a7.88,7.88,0,0,1-1.93,5c-4.2,2.7-7.91-1.13-12.12-1.1.05,5.92,4.09,10.7,3.79,16.44a1.8,1.8,0,0,1-1,.95c-2.44-.35-2.77-2.61-3.8-4.22-1.25-2-2.09-4.15-3.41-6.06-.79-1.14-1-3.18-2.87-3-1.42.16-1.67,1.91-2.27,3.05-1.45,2.78-2.84,5.58-4.49,8.25l-8.83-3.29c3.52-3.5,3.61-8.26,5.27-13.31C303.83,401.59,297.52,403.48,291.52,406.23Z" transform="translate(-185.47 -268.31)"/><path class="cls-5" d="M340.29,437.67c.22-5.18,4.17-8.93,5.3-13.76,12.36,2.93,24.83,3.84,37.4,1.67a24,24,0,0,0,6.06-2.09c7-3.31,8.72-8.58,5.23-15.51-.81-1.6-1.89-3.07-2.84-4.6-.11-1.74.67-1.79,1.9-1,6.25,6.18,12.45,12.4,13.45,21.82.22,2.07,2,2.38,3.45,3.15,1.73.94,3.44,1.91,5.17,2.86,2.22,4.42-1.67,2.74-3.3,3.31-4.73-1.65-8.44-.52-12.46,2.76-4.71,3.83-11,4.37-17,4.88A123.35,123.35,0,0,1,347,438.8C344.77,438.33,342.36,439,340.29,437.67Z" transform="translate(-185.47 -268.31)"/><path class="cls-6" d="M225.64,360c-.73,1.61-3.28,1.87-3.09,4.17l-24.89-10.93c-.31-.93-.09-1.38,1-1Z" transform="translate(-185.47 -268.31)"/><path class="cls-7" d="M412.11,433.51c.71-1.49,4.45.05,3.3-3.31,7.27,2.25,13.68,6.36,20.33,10.23Z" transform="translate(-185.47 -268.31)"/><path class="cls-8" d="M302.46,426.39l5,1.92c-3.67,4.6-4.94,10.53-8.33,15.35C299.17,437.65,303.11,432.47,302.46,426.39Z" transform="translate(-185.47 -268.31)"/><path class="cls-9" d="M352.55,407.34a9.64,9.64,0,0,1,1.86-5.06c3.66,2.82,8.38,3.52,13.44,6.79-4.27.36-7-1.1-9.72-1.73C356.26,406.92,354.42,405.67,352.55,407.34Z" transform="translate(-185.47 -268.31)"/><path class="cls-10" d="M251.45,354.32c-.95-2.47-3.24-1.64-5-2,5.94-1.78,12-1.22,18.07-1,.27.22.35.43.24.62s-.2.28-.3.28Z" transform="translate(-185.47 -268.31)"/><path class="cls-11" d="M393.34,402.37a2.07,2.07,0,0,0-1.9,1l-6-6.6A13.7,13.7,0,0,1,393.34,402.37Z" transform="translate(-185.47 -268.31)"/><path class="cls-12" d="M324.2,331.37l1.36.14c-1.33,2.6-3.28,4.62-6.53,7.17C320.44,335,321.83,332.87,324.2,331.37Z" transform="translate(-185.47 -268.31)"/><path class="cls-13" d="M282.38,504.13l1,2.06a18.36,18.36,0,0,1-4,8.07C280.4,510.29,280.73,507,282.38,504.13Z" transform="translate(-185.47 -268.31)"/><path class="cls-14" d="M264.43,352.18a3.9,3.9,0,0,1,.06-.9h8.13l0,.9Z" transform="translate(-185.47 -268.31)"/><path class="cls-15" d="M198.62,352.24l-1,1-3.79-1.54C195.73,350.85,197.29,351,198.62,352.24Z" transform="translate(-185.47 -268.31)"/><path class="cls-16" d="M363.53,288.45l-.88-1.84c.22-.89.59-2.43,1.55-1.64S364.52,287.4,363.53,288.45Z" transform="translate(-185.47 -268.31)"/><path class="cls-17" d="M331.43,417.31c-.95-6.33-3.73-12.11-5.6-18.44,5.16-.76,9.53,3.15,14.6,2.41-1.29,5.61-4,10.69-6.06,16C333.41,418.84,332.44,419.11,331.43,417.31Z" transform="translate(-185.47 -268.31)"/><path class="cls-18" d="M342.36,396.27c-4.32-.71-7.51-4-11.67-5.13-1.48-.4-1-1.75-.07-2.17,5.37-2.42,9.68-7.12,16-7.48A88.23,88.23,0,0,1,342.36,396.27Z" transform="translate(-185.47 -268.31)"/><path class="cls-19" d="M331.43,417.31a2.46,2.46,0,0,0,2.94,0,6.67,6.67,0,0,1-2,4.14l-2.06-1a3.3,3.3,0,0,1,1.15-3.13Z" transform="translate(-185.47 -268.31)"/><path class="cls-17" d="M331.47,417.29c0,1.2.13,2.42-1.15,3.13a107.52,107.52,0,0,1-16-4.81c.51-5.08,3.65-9,6-13.26,1.13-2.05,2,.14,2.74,1.09C326.29,407.78,327.63,413.3,331.47,417.29Z" transform="translate(-185.47 -268.31)"/><path class="cls-20" d="M291.52,406.23c.86-3.67,4.49-2.71,6.76-4,3.29-1.9,7.32-2,10.52-4.32,1.3-.95,3.91-1.08,3.41,1.52-.77,4-2.4,7.82-3.74,11.7-.5,1.45-1.94.95-3,1.21Z" transform="translate(-185.47 -268.31)"/></svg>